<?xml version="1.0" encoding="utf-8"?>
<!-- Generator: Adobe Illustrator 23.0.1, SVG Export Plug-In . SVG Version: 6.00 Build 0)  -->
<svg version="1.1" id="katman_1" xmlns="http://www.w3.org/2000/svg" xmlns:xlink="http://www.w3.org/1999/xlink" x="0px" y="0px"
	 viewBox="0 0 157.6 154.1" style="enable-background:new 0 0 157.6 154.1;" xml:space="preserve">
<style type="text/css">
	.st0{fill:none;stroke:#2A4C49;stroke-width:3;stroke-miterlimit:10;}
	.st1{fill:#2A4C49;}
</style>
<g id="图层_2">
	<path class="st0" d="M150.6,152.6H7.1c-3.1,0-5.6-2.5-5.6-5.6V7.1C1.5,4,4,1.5,7.1,1.5h143.5c3.1,0,5.6,2.5,5.6,5.6v140
		C156.1,150.2,153.6,152.6,150.6,152.6z"/>
	<g>
		<g>
			<path class="st1" d="M114,148.5c-3.1,0-6.2,0-9.3,0c-1.3,0-1.9-0.4-1.8-1.7c0-0.4,0-0.9,0-1.3c-0.1-1.2,0.4-1.8,1.7-1.7
				c0.2,0,0.3,0,0.5,0c2.1,0,3-1.4,2.2-3.4c-0.2-0.5-0.6-0.6-1-0.6c-2.1,0-4.2,0-6.3,0c-1,0-1.1,0.5-1.1,1.3c0,1.9,0,3.8,0,5.8
				c0,1.1-0.4,1.5-1.5,1.5c-3.5,0-7.1,0-10.6,0c-1.3,0-1.5-0.6-1.5-1.7c0.1-2.4,0.2-2.7-2.6-2.5c-1.3,0.1-1.8-0.5-1.7-1.8
				c0.1-0.5,0-1,0-1.4c0-0.8-0.4-1.2-1.2-1.1c-0.3,0-0.6,0-1,0c-2.3,0-2.4,0-2.3-2.3c0.1-1.6-0.5-2-2-2c-1.5,0-2.1,0.4-2,2
				c0.1,1.6,0.1,3.2,0,4.8c0,1,0.3,1.5,1.4,1.4c0.1,0,0.2,0,0.3,0c2.6,0,3.4,1.2,2.7,3.8c-0.2,0.6-0.5,0.8-1,0.8c-0.6,0-1.3,0-1.9,0
				c-1.7,0.2-2.1-0.7-1.9-2.1c0.2-1.5-0.3-2.3-2-2.2c-1.9,0.1-2,0.1-2,2.1c0,2.1,0,2.1-2.1,2.1c-4.6,0-9.2,0-13.8,0
				c-1.4,0-2-0.4-1.9-1.9c0.1-2.3,0-2.4-2.4-2.3c-1.5,0-2.1-0.4-2.1-2c0.1-2.4,0-2.5-2.3-2.4c-1.6,0.1-2.2-0.5-2.1-2.1
				c0.1-3.1,0.1-6.3,0-9.5c0-1.3,0.4-1.9,1.7-1.8c0.4,0,0.9,0,1.3,0c1,0.1,1.5-0.3,1.4-1.4c0-1.8-0.1-3.5,0-5.3
				c0-1.1-0.4-1.6-1.5-1.5c-0.1,0-0.1,0-0.2,0c-2.7-0.1-3.4-1-2.8-3.8c0.2-0.9,0.8-0.9,1.4-0.9c2,0,4,0,5.9,0c1.1,0,1.5-0.4,1.5-1.5
				c0-3,0.4-3.3,3.4-2.9c0.9,0.1,1.3,0.5,1.2,1.3c0,0.3,0,0.6,0,1c0,2.5,0,2.5-2.4,2.5c-1.4,0-2,0.4-1.9,1.8c0.1,1.6,0.1,3.2,0,4.8
				c-0.1,1.7,0.9,1.6,2.1,1.6c1.2,0,2-0.3,1.8-1.7c0-0.2,0-0.3,0-0.5c0-2.2,0.1-2.3,2.2-2.3c2.1,0,2.2,0,2.2-2.2
				c-0.1-1.6,0.5-2.1,2-2c2.4,0.1,2.4,0,2.4-2.4c0-1.9,0.1-2,2.4-2c2.3,0,2.3,0,2.3,2c0,3.2-0.1,6.3,0,9.5c0,1.4-0.4,1.9-1.8,1.9
				c-2.5-0.1-2.5,0-2.5,2.6c0,2.8,0,5.6,0,8.3c0,1.2,0.3,1.8,1.6,1.7c1.8-0.1,3.5-0.1,5.3,0c1.7,0.1,1.3-1.1,1.4-2.1
				c0-1,0.1-2-1.4-1.9c-0.2,0-0.4,0-0.6,0c-2.4,0-2.4,0-2.4-2.4c0-2.2,0.1-2.2,2.3-2.2c2.1,0,2.1,0,2.1-2.1c0-1.7,0-3.3,0-5
				c0-1.1,0.4-1.6,1.5-1.5c0.3,0,0.6,0,1,0c1.8,0,2.7-1.6,1.9-3.2c-0.2-0.5-0.6-0.5-1.1-0.5c-0.6,0-1.3,0-1.9,0
				c-0.9,0-1.4-0.5-1.3-1.4c0-0.4,0-0.7,0-1.1c0-2.2,0.1-2.3,2.2-2.3c2.2,0,2.2,0,2.2-2.2c0-2,0-2,2.5-2c2.2,0,2.2,0,2.2,2.1
				c0,2.2,0,2.2,2.2,2.2c1.7,0,3.3,0,5,0c1.4,0,1.3-1,1.3-1.9c0-0.9,0.2-1.9-1.2-1.9c-0.2,0-0.4,0-0.6,0c-2.5,0-2.6,0-2.5-2.6
				c0-1.5-0.6-1.9-2-1.9c-2.3,0.1-2.3,0-2.3-2.2c0-1.6-0.1-3.2,0-4.8c0.1-1.5-1-1.4-1.9-1.4c-1,0-2.2-0.2-2.1,1.4c0,0.3,0,0.6,0,1
				c0.2,1.5-0.5,1.9-2,1.9c-2.4-0.1-2.5,0-2.4,2.4c0,1.4-0.5,1.8-1.9,1.8c-3,0-3,0-3-2.9c0-1.5,0-3.1,0-4.6c0-0.9,0.4-1.3,1.4-1.3
				c2,0,4.1-0.1,6.1,0c1.5,0.1,1.4-0.9,1.4-1.9c0-0.9,0.4-2.1-1.4-2.1c-3.1-0.1-3.1-0.1-3.1-3.3c0-1.3,0-2.7,0-4
				c0-1-0.4-1.4-1.3-1.3c-0.3,0-0.6,0-1,0c-1.6,0.2-2.2-0.4-2.2-2c0.1-2.2,0-2.2-2.2-2.2c-1.6,0-3.2,0-4.8,0c-1.3,0-1.8-0.5-1.7-1.7
				c0-0.2,0-0.3,0-0.5c0-2-1.5-3-3.4-2.2c-0.7,0.3-0.5,1-0.6,1.5c0,2.8,0.4,2.8-2.9,2.8c-2.9,0-5.9-0.1-8.8,0c-1.4,0-2-0.5-1.9-1.9
				c0-0.5,0-1,0-1.4c0-0.8-0.4-1.2-1.2-1.1c-2,0-4,0-5.9,0c-1.5,0-1.1,1.1-1.1,2c0,0.8-0.3,2,1.1,2c0.1,0,0.2,0,0.3,0
				c2.6,0.1,2.7,0.1,2.7,2.8c0,1.2,0.5,1.5,1.6,1.5c1.9,0,3.7,0,5.6,0c1.3,0,1.9,0.5,1.8,1.8c0,0.2,0,0.3,0,0.5c0,2.5,0,2.6-2.4,2.5
				c-1.5,0-2.1,0.4-2,2c0,1.4,0.4,2,1.8,1.9c1.7-0.1,3.4-0.1,5.1,0c1.2,0,1.7-0.4,1.6-1.6c0-0.4,0-0.7,0-1.1
				c-0.1-1.1,0.4-1.6,1.5-1.5c0.5,0,1,0,1.4,0c1,0.1,1.4-0.4,1.3-1.3c0-0.5,0-1,0-1.4c-0.1-1.2,0.5-1.6,1.6-1.6c2,0,4,0,5.9,0
				c1.3,0,1.8,0.6,1.7,1.8c-0.1,2.9,0.2,2.6,2.5,2.5c1.3,0,1.9,0.4,1.8,1.8c0,0.4,0,0.9,0,1.3c0.1,1.3-0.4,1.7-1.7,1.7
				c-2.3-0.1-2.7-0.5-2.6,2.6c0,1.2-0.4,1.8-1.7,1.7c-0.5,0-1.1,0-1.6,0c-1.1,0-1.7-0.5-1.6-1.6c0-0.2,0-0.4,0-0.6
				c-0.1-0.7,0.4-1.7-0.6-2c-1-0.3-2-0.3-3,0c-0.6,0.2-0.4,0.8-0.4,1.3c0,1.9-0.1,3.7,0,5.6c0,1.2-0.4,1.7-1.6,1.6c-0.3,0-0.6,0-1,0
				c-2.1,0-2.1,0-2.2-2.1c0-1.9-1.7-2.9-3.4-2c-0.8,0.4-0.6,1.1-0.6,1.7c-0.1,2.4-0.1,2.4-2.5,2.4c-3,0-6,0.1-9,0
				c-1.6-0.1-1.7,0.8-1.7,2c0,1.2,0,2.2,1.6,2c0.5-0.1,1,0,1.4,0c0.8,0,1.2,0.3,1.2,1.1c0,0.4,0,0.7,0,1.1c0,2.3,0,2.4-2.4,2.4
				c-1.4,0-1.9,0.4-1.9,1.8c0,1.3,0.2,2.2,1.8,2c0.8-0.1,2-0.4,2.3,0.6c0.4,1.1,0.3,2.4,0,3.6c-0.1,0.5-0.6,0.5-1.1,0.5
				c-2.2,0-4.4,0-6.6,0c-1.7,0-1.4-1.3-1.3-2.3c0.1-1.6-0.5-2.2-2.1-2.1c-1.9,0.1-1.9,0-2,2.3c0,0.7,0.4,1.7-0.6,1.9
				c-1.2,0.3-2.6,0.5-3.7-0.2c-0.7-0.4-0.4-1.5-0.3-2.3c0.1-1.4-0.4-1.9-1.8-1.8c-2.6,0.1-2.6,0-2.6-2.6c0-1.6,0-3.2,0-4.8
				c0-1,0.4-1.5,1.4-1.4c0.2,0,0.4,0,0.6,0c2.3,0,3-1.1,2.4-3.3c-0.1-0.4-0.4-0.6-0.8-0.7c-0.4,0-0.7,0-1.1,0c-2.5,0-2.5,0-2.5-2.5
				c0-1.4-0.5-1.9-1.9-1.8c-0.8,0-1.9,0.4-2.3-0.5c-0.5-1.1-0.3-2.4-0.1-3.6c0.1-0.6,0.7-0.6,1.2-0.6c2.2,0,4.4,0,6.6,0
				c0.9,0,1.4,0.5,1.4,1.4c0,0.5,0,1.1,0,1.6c-0.1,1,0.4,1.4,1.4,1.4c1.8,0,3.6,0,5.4,0c1,0,1.5-0.4,1.4-1.4c0-0.2,0-0.4,0-0.6
				c0-2.3,0-2.4,2.4-2.3c1.5,0.1,2.1-0.4,2-2c-0.1-2.3,0-2.2,2.3-2.3c0.7,0,1.7,0.4,2-0.5c0.3-0.9,0.3-2,0-3c-0.2-0.7-1-0.4-1.6-0.4
				c-2.7,0-2.8,0.3-2.7-2.7c0-1.2-0.4-1.6-1.6-1.6c-1.9,0.1-3.7,0.1-5.6,0c-1.3,0-1.3,0.8-1.3,1.7c0.1,0.9-0.4,2.1,1.2,2.1
				c0.1,0,0.2,0,0.3,0c2.9,0.1,3.5,0.9,2.9,3.8c-0.1,0.8-0.6,1-1.2,1c-3.7,0-7.4,0-11.1,0c-0.8,0-1.3-0.4-1.3-1.3
				c0-0.4-0.1-0.9,0-1.3c0.2-1.5-0.5-2-1.9-1.9c-0.8,0-1.9,0.5-2.3-0.5c-0.5-1.1-0.3-2.3-0.1-3.5c0.1-0.4,0.4-0.6,0.8-0.6
				c0.5,0,1.1,0,1.6,0c2.3,0,2.3,0,2.3,2.2c0,1.8,1.9,2.8,3.5,1.9c0.5-0.3,0.5-0.8,0.5-1.3c0-1.8,0-3.6,0-5.4c0-1-0.4-1.5-1.4-1.4
				c-0.2,0-0.3,0-0.5,0c-2.5,0-2.6,0-2.5-2.5c0-1.4-0.5-1.8-1.8-1.7c-1.8,0.1-3.5,0-5.3,0c-1.1,0-1.7-0.3-1.6-1.5
				c0.1-3.4,0-6.8,0-10.3c0-1.1,0.4-1.6,1.5-1.5c0.4,0,0.9,0,1.3,0c1.5-0.2,2,0.4,1.9,1.9c-0.1,2.2,1,2.9,3.2,2.3
				c0.6-0.2,0.8-0.5,0.8-1.1c0-0.6,0-1.2,0-1.8c0-0.9,0.4-1.4,1.3-1.4c0.4,0,0.9,0,1.3,0c1.4,0.2,1.9-0.3,1.9-1.8
				c-0.1-2.4,0-2.4,2.4-2.5c0.6,0,1.6,0.3,1.8-0.5c0.3-1,0.3-2,0-3c-0.1-0.5-0.7-0.4-1.1-0.4c-1.9,0-3.8,0-5.8,0
				c-1,0-1.5,0.4-1.4,1.4c0,0.5,0,1.1,0,1.6c0,0.8-0.3,1.2-1.2,1.2c-0.3,0-0.5,0-0.8,0c-2.9,0-3.5-0.8-2.9-3.6c0.1-0.6,0.4-1,1.1-1
				c0.6,0,1.2-0.1,1.8,0c1.2,0.1,1.6-0.4,1.6-1.6c0-2.6,0.1-2.6,2.6-2.6c3.1,0,6.2,0,9.3,0c1.3,0,1.7,0.5,1.7,1.7
				c-0.1,3.2,0.1,6.4,0,9.6c0,1.5,0.8,1.6,1.9,1.6c1-0.1,2.3,0.3,2.1-1.5c0-0.3,0-0.6,0-1c-0.1-1.3,0.4-1.8,1.7-1.8
				c1.8,0.1,3.5-0.1,5.3,0c1.4,0.1,1.7-0.5,1.7-1.8c0-5.9,0-11.8,0-17.6c0-2.2,0.1-2.2,2.3-2.3c2.1,0,2.2,0,2.1-2.3
				c-0.1-1.6,0.5-2,2-2c2.7,0.1,2.8,0,2.8,2.7c0,1.5,0.8,1.6,1.9,1.6c1.1,0,2.1-0.1,2-1.6c0-0.5,0-1,0-1.4c0-0.9,0.4-1.3,1.3-1.2
				c0.3,0,0.6,0,1,0c2.6,0,2.6,0,2.6,2.5c0,2.1,0,2.1-2.2,2.1C55,28,55,28,55,30.3c0,2.9,0.1,5.9,0,8.8c-0.1,1.6,0.8,1.6,1.9,1.5
				c1.1,0,2.2,0.2,2.1-1.5c-0.1-1.9,0-3.7,0-5.6c0-1.1,0.4-1.6,1.5-1.5c0.3,0,0.6,0,1,0c2.4,0,2.4,0,2.4,2.4c0,1.6,0.6,1.9,2,1.9
				c1.3,0,2-0.4,1.9-1.8c-0.1-1.8,0-3.5,0-5.3c0-1.1,0.5-1.5,1.6-1.5c2,0,4.1,0,6.1,0c1.3,0,1.7,0.6,1.7,1.8c0,0.4,0,0.9,0,1.3
				c0,0.9,0.3,1.4,1.3,1.3c0.3,0,0.5,0,0.8,0c2.1,0,2.2,0,2.1,2.1c-0.1,1.6,0.4,2.2,2,2.2c1.7,0,2.2-0.6,2-2.2
				c-0.2-1.5,0.4-2.2,2-2.2c2.3,0.1,3-1.1,2.4-3.3C89.5,28,89,28,88.5,28c-1.9,0-3.7-0.1-5.6,0c-1.3,0.1-1.8-0.3-1.8-1.7
				c0.1-2.5,0.4-2.5-2.5-2.5c-2.9,0-5.9-0.1-8.8,0c-1.4,0-2-0.5-2-1.9c0-2.5-0.1-2.5-2.5-2.5c-1.5,0-3.1,0-4.6,0
				c-1.1,0-1.6-0.4-1.5-1.5c0-0.4,0-0.8,0-1.1c0.1-1.3-0.5-1.8-1.7-1.6c-0.1,0-0.1,0-0.2,0c-2.5,0-2.6,0-2.6-2.5
				c0-1.4-0.6-1.8-1.8-1.7c-0.8,0-2,0.4-2.3-0.6c-0.4-1.1-0.3-2.5,0-3.6c0.2-0.8,1.1-0.6,1.7-0.6C55,6,55,6,55,8.8
				c0,1.2,0.3,1.7,1.6,1.7c2.5-0.1,3-0.6,2.8,2.7c0,1,0.3,1.5,1.3,1.5c1.9,0,3.7,0,5.6,0c1,0,1.3-0.4,1.3-1.4c0-1.8,0-3.6,0-5.4
				c0-1.3,0.4-1.9,1.8-1.8c0.4,0,0.9,0,1.3,0C72.2,6,72.7,6.6,72.6,8c-0.1,1.7,0,3.4,0,5.1c0,1.1,0.3,1.7,1.5,1.6
				c1.8-0.1,3.6-0.1,5.4,0c1.1,0,1.5-0.4,1.5-1.5c-0.1-1.9,0-3.7,0-5.6c0-1.1,0.4-1.5,1.5-1.5c2,0,4,0,5.9,0c1.2,0,1.8,0.5,1.7,1.7
				c0,0.2,0,0.4,0,0.6c0,2.4,0,2.5-2.5,2.5c-1.4,0-2,0.4-2,1.9c0,1.4,0.4,2,1.9,1.9c1.7-0.1,3.4-0.1,5.1,0c1.1,0,1.6-0.4,1.5-1.5
				c0-0.4,0-0.9,0-1.3c-0.1-1,0.4-1.5,1.4-1.4c0.5,0,1,0,1.4,0c1,0.1,1.5-0.4,1.4-1.4c0-0.1,0-0.1,0-0.2c0.1-2.6,1.5-3.6,4.1-2.8
				c0.7,0.2,0.8,0.8,0.8,1.4c0,1.7,0.1,3.4,0,5.1c-0.1,1.7,0.5,2.2,2.1,2c1.6-0.1,3.3,0,5,0c1.3,0,1.7,0.5,1.7,1.7
				c-0.1,1.8,0,3.6,0,5.4c0,1.1,0.4,1.6,1.5,1.5c0.1,0,0.1,0,0.2,0c2.8,0.1,3.4,0.9,2.8,3.8c-0.1,0.6-0.4,0.9-0.9,0.9
				c-1,0-1.9,0-2.9,0c-0.6,0-0.9-0.3-0.9-0.9c0-0.4-0.1-0.9-0.1-1.3c0-1.8-1.9-2.8-3.4-1.9c-0.6,0.4-0.5,1-0.5,1.6
				c-0.1,2.5-0.1,2.4-2.5,2.5c-0.6,0-1.6-0.3-1.8,0.5c-0.3,1-0.3,2,0.1,3c0.3,0.7,1,0.4,1.6,0.4c2.6,0.1,2.6,0,2.7,2.6
				c0,1.6,0,3.2,0,4.8c0,1.2-0.5,1.6-1.6,1.6c-1.8,0-3.6,0-5.4,0c-1.3,0-1.8,0.3-1.8,1.7c0,2.6,0,2.6-2.7,2.6c-1.5,0-3.1,0-4.6,0
				c-0.9,0-1.4,0.4-1.4,1.3c0,1.9,0,3.7,0,5.6c0,1.7,1.3,1.2,2.2,1.2c0.9,0.1,1.8,0.2,1.8-1.3c0.1-3.1,0.5-3.3,3.6-2.9
				c0.7,0.1,1.1,0.4,1.1,1.1c0,0.4,0,0.7,0,1.1c0,2.4,0,2.4-2.4,2.4c-1.9,0-2.7,1.2-2,3.1c0.3,0.7,0.9,0.7,1.5,0.7
				c3.2,0,6.3,0,9.5,0c2.3,0,2.4,0.1,2.3,2.3c0,1.2,0,2.2,1.7,2.1c2.1-0.1,2.1-0.1,2.1-2.2c0-1.6,0-3.2,0-4.8c0-1.2,0.5-1.8,1.7-1.7
				c0.2,0,0.4,0,0.6,0c2.5,0,2.5,0,2.5,2.4c0,1.4,0.5,1.8,1.9,1.8c2.5,0,2.6,0,2.6,2.6c0,1.4,0.4,1.9,1.8,1.8c1.6-0.1,3.3-0.1,5,0
				c1.1,0,1.6-0.4,1.5-1.5c0-0.4,0-0.9,0-1.3c-0.1-1.2,0.5-1.7,1.6-1.6c0.4,0,0.9,0,1.3,0c1.2,0.1,1.6-0.5,1.6-1.6
				c0-2.6,0.1-2.6,2.6-2.6c1.5,0,3.1,0,4.6,0c1,0,1.5-0.4,1.4-1.4c0-1.8,0-3.5,0-5.3c0-1.1-0.4-1.5-1.5-1.5c-2.5,0-2.5-0.1-2.5,2.4
				c0,1.4-0.4,2-1.8,1.8c-0.5-0.1-1.1,0-1.6,0c-1,0.1-1.4-0.4-1.3-1.4c0-0.3,0-0.5,0-0.8c0-2.5,0-2.6,2.5-2.5c1.7,0.1,2.1-0.6,2-2.1
				c-0.1-2.1,0-2.1,2.1-2.1c3.3,0,6.5,0,9.8,0c1.2,0,1.7,0.4,1.6,1.6c0,1.9,0,3.8,0,5.8c0,1.2-0.5,1.6-1.6,1.6
				c-2.9,0-2.8-0.5-2.8,2.9c0,1.4,0,2.8,0,4.2c0,1.2-0.4,1.6-1.6,1.6c-3.3,0-6.5,0-9.8,0c-1.3,0-1.8,0.3-1.8,1.7
				c0,2.6,0,2.7-2.8,2.7c-1.2,0-1.7,0.4-1.7,1.7c0.1,1.8,0,3.5,0,5.3c0,1.1-0.4,1.6-1.5,1.5c-0.3,0-0.6,0-1,0
				c-1.7-0.3-2.1,0.5-2.1,2.1c0,1.4,0.4,2,1.9,1.9c3.2-0.1,6.4-0.1,9.6,0c1.6,0,1.5-1,1.5-2c0-1,0.2-2.2-1.4-2c-0.1,0-0.1,0-0.2,0
				c-2.9-0.1-3.4-0.8-2.9-3.7c0.1-0.6,0.5-0.9,1.1-1c0.6,0,1.3-0.1,1.9,0c1.1,0.1,1.6-0.4,1.5-1.5c0-0.4,0-0.9,0-1.3
				c-0.1-1,0.4-1.5,1.4-1.4c0.3,0,0.6,0,1,0c2.3,0,2.3,0,2.3,2.3c0,0.6-0.3,1.6,0.6,1.8c1,0.3,2.1,0.4,3-0.1
				c0.8-0.3,0.3-1.2,0.4-1.9c0.1-0.7-0.3-1.7,0.6-2c1.3-0.3,2.9-0.7,3.9,0.2c0.9,0.8,0.5,2.4,0.3,3.7c-0.2,0.9-1.1,0.6-1.8,0.6
				c-1.2,0.1-2.7-0.4-2.5,1.8c0.1,2.2,0,2.2,2.2,2.2c2.2,0,2.2,0,2.2,2.2c0,3,0,6,0,9c0,1.9-0.2,2.1-2.1,2.1c-1.6,0-3.2,0.1-4.8,0
				c-1.4-0.1-2,0.3-2,1.9c0,1.4,0.4,2.2,1.9,1.9c0.1,0,0.2,0,0.3,0c2.3,0,2.4,0,2.3,2.4c-0.1,1.6,0.4,2.2,2.1,2.1
				c2.4-0.1,2.4,0,2.4,2.4c0,1.7,0,3.4,0,5.1c0,0.9-0.4,1.3-1.4,1.3c-3.5,0.2-3.5,0.2-3.5-3.2c0-1.3,0-2.6,0-3.8
				c0-0.9-0.3-1.4-1.3-1.4c-2,0-4,0-5.9,0c-0.9,0-1.3,0.4-1.2,1.3c0,0.6,0,1.2,0,1.8c0,0.8-0.4,1.2-1.1,1.2c-3.7,0-7.4,0-11.1,0
				c-1.1,0-1.2-0.7-1.2-1.5c0.1-2.7,0.3-2.8-2.7-2.7c-1.5,0.1-1.9-0.7-1.8-2.1c0.1-2.4,0-2.3-2.4-2.3c-1.3,0-1.7,0.5-1.6,1.7
				c0.1,1.8,0,3.5,0,5.3c0,1.3-0.5,1.7-1.7,1.7c-1.9-0.1-3.7,0-5.6,0c-1.6-0.1-1.4,1.1-1.4,2.1c0,1-0.1,2,1.4,1.9
				c1.8-0.1,3.6,0.1,5.4,0c1.5-0.1,2,0.5,1.9,2c0,0.1,0,0.2,0,0.3c0,2.4,0,2.4-2.4,2.4c-2.1,0-2,0-2.1,2c0,1.3,0.4,1.8,1.7,1.8
				c4.5-0.1,9.1-0.1,13.6,0c1.6,0,1.9-0.6,1.9-2c0-1.4-0.5-1.9-1.9-1.8c-0.8,0-1.8,0.4-2.2-0.5c-0.5-1.1-0.3-2.4-0.1-3.6
				c0.1-0.5,0.6-0.5,1-0.5c5.2,0,10.4,0,15.5,0c0.8,0,1.1,0.4,1.1,1.2c0,2.1,0,4.3,0,6.4c0,0.9-0.4,1.3-1.3,1.2c-0.4,0-0.9,0-1.3,0
				c-2.1,0-2.1,0-2.2-2.1c0-0.7,0.4-1.7-0.6-2c-1-0.3-2-0.3-3,0.1c-0.5,0.2-0.4,0.7-0.4,1.1c0,3.3,0,6.5,0,9.8
				c0,1.8,1.4,1.2,2.3,1.3c1,0.1,1.7-0.1,1.7-1.4c0-2.7,1.2-3.5,3.9-2.8c0.5,0.1,0.7,0.4,0.8,0.9c0,0.4,0,0.9,0,1.3
				c0,1.8,1.8,2.8,3.5,1.9c0.7-0.4,0.4-1,0.5-1.6c0.1-0.8-0.4-1.9,0.5-2.3c1.2-0.5,2.6-0.5,3.8,0c0.9,0.3,0.5,1.5,0.6,2.3
				c0,2.1,0,2.1-2.1,2.2c-2.2,0-2.3,0-2.2,2.3c0,1.5-0.5,2-1.9,1.9c-2.7-0.1-2.6-0.2-2.5,2.5c0.1,1.5-0.5,2-1.9,1.9
				c-1.8-0.1-3.5,0-5.3,0c-1.1,0-1.5,0.4-1.5,1.5c0,1.9,0,3.7,0,5.6c0,1.1-0.4,1.6-1.5,1.5c-0.3,0-0.5,0-0.8,0c-2.5,0-2.6,0-2.5-2.6
				c0-1.4-0.4-1.9-1.8-1.9c-3.1,0.1-6.3,0.1-9.5,0c-1.6,0-1.5,0.9-1.5,2c0,1-0.2,2.1,1.4,2c1.9-0.1,3.7,0,5.6,0
				c1.3,0,1.7,0.4,1.7,1.7c-0.1,2.6-0.3,2.6,2.6,2.5c1.4,0,2,0.5,1.8,1.9c0,0.4,0,0.9,0,1.3c0.1,1.2-0.4,1.7-1.6,1.6
				c-0.4,0-0.8,0-1.1,0c-1.3-0.1-2,0.3-1.8,1.7c0,0.3,0,0.6,0,1c0.1,1.2-0.4,1.6-1.6,1.6C120.4,148.5,117.2,148.5,114,148.5z
				 M94.3,122.5c0.8,0,1.7-0.2,2.5-0.1c1.2,0.1,1.7-0.4,1.6-1.6c-0.1-1.6-0.1-3.2,0-4.8c0.1-1.5-0.6-1.9-2-1.9
				c-4.5,0.1-9,0.1-13.4,0c-1.6,0-1.8,0.6-1.8,2c0,1.4,0.4,1.9,1.8,1.9c2.6-0.1,2.6,0,2.7,2.7c0,0.6-0.2,1.2,0.5,1.6
				c1.7,0.9,3.5-0.1,3.5-2c0-2.2,0-2.3,2.2-2.3c2.5,0,2.5,0,2.5,2.4C94.5,121.1,94.6,121.8,94.3,122.5c-0.9,0.2-1.8,0.1-2.6,0.1
				c-1.2-0.1-1.6,0.5-1.6,1.6c0.1,1.6,0.1,3.2,0,4.8c-0.1,1.6,0.7,1.9,2,1.9c1.3,0,2.1-0.1,2.1-1.8
				C94.2,126.9,94.3,124.7,94.3,122.5z M94.6,66.8C94.6,66.8,94.6,66.8,94.6,66.8c-1.1,0-2.1,0-3.2,0c-0.4,0-0.8,0-1.1,0.5
				c-0.8,1.7,0.1,3.4,2,3.4c2.2,0,2.2,0,2.2,2.2c0,0.4,0,0.7,0,1.1c0,0.9-0.4,1.2-1.2,1.3c-3.1,0.3-3.4,0.1-3.4-2.9
				c0-1.1-0.4-1.5-1.5-1.5c-3.3,0.1-6.5,0.1-9.8,0c-1.6,0-1.5,1-1.5,2c0,1-0.1,2.1,1.5,2c1.7-0.1,3.4,0.1,5.1,0
				c1.6-0.1,2.4,0.4,2.1,2.1c0,0.3,0,0.5,0,0.8c-0.1,1,0.4,1.4,1.4,1.4c1.5,0,3.1,0,4.6,0c2.6,0,2.7,0,2.6,2.6
				c0,1.5,0.5,1.8,1.9,1.8c1.3,0,2.3,0,2.2-1.8c-0.1-2.6,0-2.6,2.5-2.6c1.5,0,1.9-0.5,1.9-2c0-1.5-0.5-2.1-2-1.9c-0.5,0.1-1,0-1.4,0
				c-0.5,0-0.9-0.3-1-0.8c-0.8-2.6,0.1-3.8,2.7-3.8c0.1,0,0.1,0,0.2,0c1.2,0.2,1.6-0.4,1.6-1.6c-0.1-2.8-0.3-2.9,2.7-2.8
				c0.2,0,0.3,0,0.5,0c1.2,0.1,1.3-0.7,1.2-1.6c-0.1-0.8,0.5-2.1-1.1-2.2c-2.1-0.1-4.2,0-6.2,0c-0.7,0-1,0.3-1.1,1.1
				c-0.1,1,0.6,2.3-0.5,3c-0.9,0.5-2.1,0.1-3.2,0.2C95,66.8,94.8,66.8,94.6,66.8z M72.6,38.5c0,1.6,0.1,3.2,0,4.8
				c-0.1,1.2,0.5,1.6,1.6,1.6c1.3-0.1,2.6,0,3.8,0c3.1,0,3.1,0,3.3,3.1c0,0.6,0,1.1,0.8,1.3c2.4,0.5,3.2,0,3.2-2.5
				c0-1.4,0.4-2.1,1.9-1.9c0.4,0,0.7,0,1.1,0c1.3,0.1,1.5-0.7,1.4-1.7c0-1,0.2-2.1-1.4-2.1c-1.7,0-3.3,0-5,0c-2.3,0-2.3,0-2.3-2.3
				c0-2.1,0-2.1-2.1-2.1c-2.3,0-2.3,0-2.3-2.3c0-0.2,0-0.4,0-0.6c0.1-1.4-0.9-1.4-1.8-1.3c-0.9,0.1-2.2-0.4-2.2,1.3
				C72.6,35.3,72.6,36.9,72.6,38.5z M122.8,126.6c1.7,0,3.4,0,5.1,0c0.9,0,1.3-0.3,1.3-1.2c0-3.3,0-6.6,0-9.9c0-0.9-0.4-1.3-1.3-1.3
				c-3.4,0-6.7,0-10.1,0c-0.9,0-1.4,0.4-1.3,1.3c0,3.3,0,6.5,0,9.8c0,1,0.4,1.3,1.3,1.3C119.5,126.6,121.2,126.6,122.8,126.6z
				 M63.9,58.1c0,0.7,0.1,1.4,0,2.1c-0.2,1.5,0.4,2.1,2,2c2.3-0.1,2.4,0,2.3,2.4c-0.1,1.7,0.7,1.8,2,1.8c1.3,0,2.1-0.2,2-1.8
				c-0.1-2.4,0-2.4,2.5-2.4c0.3,0,0.6,0,1,0c0.5,0,0.8-0.2,0.9-0.7c0.7-2.2-0.1-3.2-2.4-3.3c-0.2,0-0.4,0-0.6,0
				c-0.9,0.1-1.3-0.4-1.4-1.3c-0.2-2.9-0.3-2.9-3.3-2.9c-0.3,0-0.5,0-0.8,0C63.9,53.9,63.9,53.9,63.9,58.1z M134,79.6
				C134,79.6,134,79.6,134,79.6c-1.1,0-2.1,0-3.2,0c-0.4,0-0.8,0-1.1,0.5c-0.8,1.8,0.1,3.4,2.2,3.4c2.2,0,2.3,0,2.2,2.3
				c-0.1,1.5,0.5,2,2,2c1.6,0,2.2-0.5,2.1-2.1c-0.1-2.1,0-2.1,2.1-2.2c0.2,0,0.4,0,0.6,0c1.1,0.1,1.6-0.3,1.5-1.5c0-1.8,0-3.6,0-5.4
				c0-1.7-1.3-1.2-2.2-1.3c-0.9,0-1.8-0.2-1.9,1.3c-0.1,2.9-0.2,2.9-3.1,2.9C134.9,79.6,134.4,79.6,134,79.6z M28.4,105.1
				c0.6,0,1.2,0,1.8,0c2.7,0,2.8-0.1,2.6-2.8c-0.1-0.8-0.3-1.2-1.1-1.2c-3.5,0-6.9,0-10.4,0c-0.8,0-1.2,0.3-1.2,1.1
				c0,2-0.1,3.9,0,5.9c0.1,1.7,1.4,1.1,2.3,1.2c0.9,0.1,1.6,0,1.7-1.3c0.1-2.9,0.2-2.9,3.2-2.9C27.6,105.1,28,105.1,28.4,105.1z
				 M87.8,135.7c-1.7,0-3.3,0.1-5,0c-1.4-0.1-1.5,0.8-1.5,1.8c0,1.1-0.1,2.1,1.5,2c1.9-0.1,3.7,0,5.6,0c1.4-0.1,1.9,0.5,1.8,1.9
				c0,2.7,0,2.6,2.7,2.6c1.1,0,1.4-0.5,1.3-1.5c0-1.8-0.1-3.5,0-5.3c0-1.1-0.5-1.5-1.5-1.5C91.1,135.7,89.4,135.7,87.8,135.7z
				 M107.8,73c0,1.5,0.1,3,0,4.5c-0.1,1.5,0.6,1.8,1.9,1.8c1.3,0,2-0.3,2-1.8c0-2.5,0.1-2.6,2.6-2.5c1.4,0,1.8-0.5,1.8-1.9
				c-0.1-2.1,0-2.1-2.1-2.1c-2.2,0-2.2,0-2.3-2.3c0-0.2,0-0.3,0-0.5c0.1-1.5-0.9-1.4-1.9-1.4c-1,0-2-0.1-1.9,1.4
				C107.8,69.8,107.8,71.4,107.8,73z M103.1,113.7c1,0,1.9,0,2.9,0c1,0.1,1.5-0.3,1.4-1.4c-0.1-1.6-0.1-3.3,0-5
				c0.1-1.5-0.5-1.9-1.9-1.9c-1.4,0-2.2,0.2-2.1,1.9c0.1,2.4,0,2.5-2.4,2.3c-1.6-0.1-2.1,0.4-2.1,2c0,1.5,0.4,2.2,2,2
				C101.6,113.7,102.3,113.7,103.1,113.7z M94.5,105.1c0.7,0,1.4-0.1,2.1,0c1.6,0.2,2-0.6,2-2c0-1.4-0.3-2-1.9-2
				c-2.4,0.1-2.5,0-2.4-2.4c0-1.3-0.4-1.8-1.7-1.8c-2.3,0.1-2.3,0-2.3,2.3c0,0.5,0,1.1,0,1.6C90.2,105.1,90.2,105.1,94.5,105.1z
				 M81.1,126.6c1,0,2,0,3,0c0.4,0,0.8,0,1.1-0.5c0.9-1.7-0.1-3.4-2-3.4c-2.1,0-2.1,0-2.2-2.1c0-0.4,0-0.9,0-1.3
				c0-0.5-0.3-0.7-0.8-0.8c-2.5-0.5-3.2,0-3.2,2.5c0,0.5,0,1.1,0,1.6C77.1,126.6,77.1,126.6,81.1,126.6z M98.7,96.5
				c0.8,0,1.6-0.1,2.4,0c1.5,0.2,1.9-0.5,1.9-1.9c0-1.5-0.5-2-1.9-1.9c-2.5,0.1-2.6,0-2.5-2.4c0-1.4-0.4-2-1.9-1.9
				c-2.1,0.1-2.1,0-2.2,2.1c0,0.6,0,1.3,0,1.9C94.5,96.5,94.5,96.5,98.7,96.5z M19.7,66.3c1.1,0,2.1,0,3.2,0c0.4,0,0.8,0,1.1-0.5
				c0.8-1.7-0.1-3.2-2-3.3c-2.3,0-2.4,0-2.3-2.4c0.1-1.5-0.4-2.1-1.9-2c-2.1,0.1-2.1,0-2.1,2.2c0,0.6,0,1.3,0,1.9
				C15.5,66.3,15.5,66.3,19.7,66.3z M46.3,131.1c0,0.7,0.1,1.5,0,2.2c-0.2,1.7,0.7,1.9,2.1,1.9c1.4,0,2-0.3,2-1.8
				c-0.1-2.5,0-2.5,2.5-2.6c0.6,0,1.3,0.1,1.7-0.6c0.8-1.7-0.1-3.1-2-3.2c-0.7,0-1.4,0-2.1,0C46.3,127,46.3,127,46.3,131.1z
				 M103.4,88.1c0,0.9,0.1,1.7,0,2.6c-0.2,1.9,1.1,1.5,2.2,1.6c1.2,0.1,1.9-0.2,1.8-1.6c-0.1-2.7,0-2.7,2.7-2.8c0.6,0,1.2,0,1.4-0.7
				c0.7-1.9-0.1-3.1-2.1-3.1c-0.7,0-1.4,0-2.1,0C103.4,84,103.4,84,103.4,88.1z M111.7,126.7c0-0.7-0.1-1.5,0-2.2
				c0.2-1.5-0.6-1.9-2-1.9c-1.4,0-2,0.4-1.9,1.9c0.1,2.5,0,2.6-2.6,2.5c-1.3,0-1.9,0.3-1.9,1.8c0.1,1.9,0.1,2,2.1,2
				c0.7,0,1.4,0,2.1,0C112.3,130.8,111.6,131.4,111.7,126.7z M28.5,58.2c-0.5,0-1.1,0-1.6,0c-2.8,0-2.9,0.2-2.6,2.9
				c0.1,0.8,0.4,1.1,1.2,1.1c2,0,4,0,6.1,0c0.6,0,1-0.1,1.2-0.8c0.6-2.4,0-3.2-2.5-3.2C29.6,58.2,29,58.2,28.5,58.2z M81.3,19.1
				c0,0.6,0,1.2,0,1.8c0,2.6,0.3,2.9,3,2.5c0.7-0.1,1.1-0.4,1.1-1.1c0-2,0-4,0-6.1c0-0.5-0.2-0.9-0.8-1c-2.4-0.6-3.2,0-3.2,2.4
				C81.3,18.1,81.3,18.6,81.3,19.1z M55,62.1c0,1,0,1.9,0,2.9c-0.1,1.5,1,1.3,1.9,1.3c1,0,2.1,0.3,2.1-1.4c-0.1-1.6-0.1-3.2,0-4.8
				c0.1-1.6-0.4-2.1-2.1-2.1c-1.5,0-2.2,0.4-2,2C55.1,60.7,55,61.4,55,62.1z M37.2,92.2C37.2,92.2,37.2,92.2,37.2,92.2c1,0,2,0,3,0
				c1.5,0,1.1-1.1,1.1-2c0-0.8,0.4-2-1.1-2c-2,0-4,0-6.1,0c-0.6,0-0.9,0.3-1.1,0.9c-0.4,2.5,0,3,2.5,3
				C36.2,92.2,36.7,92.2,37.2,92.2z M116.2,66.3c1,0,1.9-0.1,2.9,0c1.5,0.1,1.4-0.9,1.4-1.9c0-1,0.1-2-1.4-1.9
				c-1.8,0.1-3.5,0.1-5.3,0c-1.4-0.1-1.8,0.4-1.8,1.8c0,1.5,0.4,2.2,2,2C114.7,66.3,115.5,66.3,116.2,66.3z M90,87.8
				C90,87.8,90,87.8,90,87.8c1,0,1.9,0,2.9,0c1.4,0.1,1.4-0.9,1.3-1.8c0-0.9,0.3-2-1.3-2c-1.8,0-3.6,0.1-5.4,0
				c-1.3-0.1-1.8,0.4-1.8,1.7c0.1,2,0,2.1,2,2.1C88.5,87.8,89.3,87.8,90,87.8z M120.7,79.2C120.7,79.2,120.7,79.2,120.7,79.2
				c1,0,1.9,0,2.9,0c1.7,0.1,1.3-1.1,1.4-2.1c0.1-1-0.1-1.8-1.4-1.7c-1.8,0.1-3.6,0.1-5.4,0c-1.3-0.1-1.7,0.5-1.6,1.7
				c0,2.1,0.1,2.1,2.2,2.1C119.4,79.2,120.1,79.2,120.7,79.2z M100.7,19.4c-1.4-0.3-1.9,0.4-1.8,1.9c0.1,2.1,0,2,2,2.1
				c1.5,0.1,2.1-0.4,2-2C102.8,19.4,102.9,19.4,100.7,19.4z M96.1,32c2.3,0,2.3,0,2.4-1.9c0.1-1.4-0.3-2.1-1.9-2.1
				c-1.5,0-2.3,0.2-2.2,2C94.5,31.3,94.6,32.4,96.1,32z M59,124.6c0-1.9,0-1.9-1.9-2c-1.6-0.1-2.2,0.4-2.1,2c0,1.5,0.4,2.1,2,2
				C59,126.5,59,126.6,59,124.6z M69.8,75c2.3,0,2.3,0,2.4-2c0.1-1.5-0.3-2.1-1.9-2.1C69,71,68,71,68.1,72.8
				C68.2,74.1,68.1,75.4,69.8,75z M55.1,51.3c-0.2,1.4,0,2.3,1.7,2.2c1.4-0.1,2.4,0,2.2-1.9c-0.1-2.1,0-2.1-2-2.1
				C55.7,49.5,54.6,49.6,55.1,51.3z M69.9,19.2c2.2,0,2.2,0,2.3-1.9c0-2.1,0-2.1-2-2.1c-2,0-1.9,0-2,2
				C68.1,18.8,68.5,19.5,69.9,19.2z M146.8,72.8c0.3-1.3-0.2-1.9-1.9-1.9c-1.5,0-2.3,0.2-2.2,2c0.1,1.4,0.2,2.2,1.9,2.1
				C146.8,74.9,146.8,75,146.8,72.8z M92.6,19.4c-2.3,0-2.3,0-2.4,2c-0.1,1.5,0.3,2.1,2,2c2.1-0.1,2,0,2.1-2
				C94.3,20,94.1,19,92.6,19.4z M45.8,51.6c0.3-1.5-0.2-2.1-1.8-2.1c-1.5,0-2.3,0.2-2.2,2c0.1,1.4,0.3,2.1,1.9,2.1
				C45.2,53.5,46.3,53.4,45.8,51.6z M45.8,68.8c0.4-1.5-0.2-2.1-1.8-2.1c-1.5,0-2.2,0.3-2.2,2c0.1,1.4,0.3,2.1,1.9,2.1
				C45.2,70.8,46.2,70.7,45.8,68.8z M57,135.1c1.6,0.4,2.1-0.2,2.1-1.9c0-1.4-0.3-2.1-1.9-2.1c-1.5,0-2.3,0.2-2.2,2
				C55.1,134.6,55.1,135.6,57,135.1z M63.4,68.8c0.4-1.6-0.3-2.1-1.9-2c-2.1,0.1-2,0-2.1,2c-0.1,1.5,0.4,2.1,2,2
				C62.9,70.8,63.8,70.6,63.4,68.8z M74.7,66.9c-1.4-0.3-2.2,0.1-2.1,1.8c0,1.4,0.2,2.3,2,2.2c1.3-0.1,2.2-0.1,2.1-1.9
				C76.6,67.6,76.6,66.4,74.7,66.9z M125.3,90.2c-0.4,1.6,0.3,2.1,1.8,2c2.1-0.1,2.1,0,2.1-2c0-2,0-1.9-2.1-2
				C125.6,88.2,124.9,88.6,125.3,90.2z M101.1,131.3c-1.4-0.2-2.3,0-2.2,1.7c0.1,1.4,0.1,2.3,1.9,2.2c1.5-0.1,2.3-0.3,2.2-2
				C102.9,131.9,102.8,130.9,101.1,131.3z M26.2,70.7c1.6,0.4,2.1-0.3,2-1.9c-0.1-2-0.1-2-2.1-2.1c-1.7-0.1-2,0.6-2,2.1
				C24.2,70.5,24.7,71.1,26.2,70.7z M57,143.8c1.6,0.4,2.1-0.3,2-1.9c-0.1-2,0-1.9-2-2.1c-1.7-0.1-2,0.6-2,2.1
				C55,143.5,55.5,144.2,57,143.8z M114.2,139.9c-1.4-0.2-2.3,0-2.2,1.7c0.1,1.4,0.1,2.3,1.9,2.2c1.5-0.1,2.3-0.2,2.2-2
				C116,140.5,115.9,139.5,114.2,139.9z M81,111.9c0.2-1.4,0-2.3-1.7-2.2c-1.4,0.1-2.4,0-2.3,1.9c0.1,2,0.1,2.1,2,2.1
				C80.4,113.8,81.5,113.7,81,111.9z M107.3,120.5c0.3-1.6-0.2-2.2-1.9-2.2c-1.4,0-2.2,0.2-2.1,1.9c0.1,2.1,0,2.1,2,2.1
				C106.7,122.4,107.8,122.3,107.3,120.5z M45.8,60.3c0.2-1.4,0-2.3-1.8-2.2c-1.4,0.1-2.4,0-2.2,1.9c0.1,1.3,0.1,2.3,1.8,2.1
				C44.9,62,46.3,62.3,45.8,60.3z M140.2,118.4c-1.1-0.2-1.9,0.1-1.8,1.8c0.1,1.2-0.1,2.4,1.8,2.2c1.3-0.1,2.4,0.1,2.3-1.8
				C142.3,118.5,142.4,118.4,140.2,118.4z M50.3,34.3c0.4-1.6-0.5-1.9-1.9-1.9c-1.5,0-2.1,0.3-2.1,2c0,1.5,0.5,2,2,1.9
				C49.5,36.2,50.7,36.2,50.3,34.3z M94.2,34.4c0.4-1.6-0.5-2-1.9-2c-1.5,0-2.1,0.3-2.1,2c0,1.5,0.5,2,2,1.9
				C93.5,36.2,94.6,36.2,94.2,34.4z M100.9,36.2c1.6,0.3,2-0.4,2-1.9c0-1.6-0.6-1.9-2-1.9c-1.4,0-2.1,0.3-2.1,1.9
				C98.9,35.9,99.4,36.5,100.9,36.2z M52.7,70.7c1.7,0.4,1.9-0.5,1.9-2c0-1.5-0.4-2-2-2c-1.6,0-2,0.6-2,2.1
				C50.7,70.3,51,71.1,52.7,70.7z M81,85.9c0.4-1.8-0.7-1.8-2-1.9c-1.4,0-2,0.4-2,1.9c0,1.6,0.6,2,2.1,2
				C80.6,87.9,81.4,87.5,81,85.9z M123,87.8c1.6,0.3,2-0.3,2-1.9c0-1.5-0.5-1.9-2-1.9c-1.4,0-2.2,0.2-2.2,1.9
				C120.9,87.5,121.4,88.1,123,87.8z M88,96.4c1.5,0.4,1.8-0.4,1.8-1.8c0.1-1.6-0.6-1.9-2.1-2c-1.6,0-2,0.5-2,2
				C85.7,96.4,86.5,96.6,88,96.4z M87.9,66.3c1.6,0.4,1.9-0.4,2-1.9c0-1.6-0.6-1.9-2-1.9c-1.4,0-2.1,0.3-2.1,1.9
				C85.7,66,86.3,66.6,87.9,66.3z M79.1,66.3c1.6,0.4,2-0.4,2-1.9c0-1.6-0.6-1.9-2-1.9c-1.4,0-2.2,0.3-2.1,1.9
				C77,66,77.6,66.6,79.1,66.3z M35.2,66.3c1.4,0.3,2.1-0.2,2.1-1.8c0-1.4-0.4-2-1.9-2c-1.3,0.1-2.3,0.1-2.2,1.8
				C33.1,65.8,33.5,66.7,35.2,66.3z M79.1,54c-1.6-0.3-2,0.3-2.1,1.9c0,1.7,0.8,1.9,2.2,1.9c1.4,0,2-0.4,2-1.9
				C81.1,54.3,80.6,53.6,79.1,54z M52.7,45.4c-1.4-0.3-2.1,0.2-2.1,1.8c0.1,1.2,0,2.2,1.7,2.1c1.3-0.1,2.3-0.1,2.2-1.8
				C54.5,46.2,54.7,45,52.7,45.4z M22.1,54c-1.4-0.2-2.2,0-2.2,1.8c0,1.5,0.5,2,2,2c1.4,0,2.1-0.3,2.1-1.9
				C24,54.4,23.7,53.7,22.1,54z M50.3,55.8c0.4-1.8-0.7-1.8-2-1.9c-1.4-0.1-1.9,0.4-2,1.9c0,1.6,0.6,2,2.1,2
				C49.8,57.8,50.6,57.4,50.3,55.8z M61.6,139.4c1.6,0.4,1.9-0.5,1.9-1.9c0.1-1.6-0.7-1.8-2-1.8c-1.5,0-2.1,0.3-2.1,2
				C59.4,139.2,60.1,139.7,61.6,139.4z M48.4,66.3c1.5,0.4,2-0.3,2-1.9c0-1.5-0.5-1.9-1.9-1.9c-1.4,0-2.2,0.2-2.2,1.9
				C46.3,65.9,46.7,66.6,48.4,66.3z M65.8,143.8c1.7,0.4,1.9-0.5,2-2c0-1.5-0.5-2-2-2c-1.6,0-2,0.6-2,2.1
				C63.9,143.3,64.2,144.2,65.8,143.8z M35,57.7c1.4,0.2,2.2-0.1,2.2-1.8c-0.1-1.4-0.3-2.1-1.9-2c-1.2,0.1-2.3-0.1-2.3,1.8
				C33.2,57.1,33.4,58,35,57.7z M48.3,41.1c-1.6-0.3-1.9,0.5-2,2c-0.1,1.8,0.9,1.8,2.2,1.8c1.5,0.1,1.9-0.5,1.9-1.9
				C50.4,41.3,49.7,40.8,48.3,41.1z M65.7,44.8c1.3,0.2,2.1-0.1,2.1-1.7c0-1.4-0.3-2.1-1.9-2.1c-1.4,0-2,0.4-2,1.9
				C63.9,44.2,64.1,45.1,65.7,44.8z M109.7,139.4c1.4,0.2,2.1-0.2,2-1.8c0-1.4-0.4-2-1.9-2c-1.4,0-2.1,0.3-2,1.9
				C107.8,138.9,108.1,139.7,109.7,139.4z"/>
			<path class="st1" d="M136.1,36.7c-4.6,0-9.2,0-13.8,0c-1.4,0-1.9-0.4-1.9-1.8c0-9,0-17.9,0-26.9c0-1.4,0.5-1.9,1.9-1.8
				c9.1,0,18.3,0,27.4,0c1.5,0,2,0.5,2,2c0,8.9,0,17.8,0,26.7c0,1.5-0.5,1.9-2,1.9C145.2,36.6,140.7,36.7,136.1,36.7z M136,32
				c3,0,6.1-0.1,9.1,0c1.4,0,1.7-0.5,1.7-1.8c-0.1-5.9-0.1-11.7,0-17.6c0-1.4-0.5-1.7-1.8-1.7c-6,0-12.1,0-18.1,0
				c-1.3,0-1.8,0.3-1.8,1.7c0.1,5.9,0.1,11.8,0,17.8c0,1.3,0.5,1.6,1.7,1.6C129.9,32,133,32,136,32z"/>
			<path class="st1" d="M21.9,36.7c-4.5,0-9,0-13.5,0c-1.5,0-2.1-0.4-2.1-2c0.1-8.9,0.1-17.8,0-26.8c0-1.4,0.4-1.9,1.8-1.9
				c9.1,0,18.3,0,27.4,0c1.4,0,1.8,0.5,1.8,1.9c0,8.9-0.1,17.8,0,26.8c0,1.4-0.4,2-1.9,1.9C31,36.6,26.4,36.7,21.9,36.7z M21.8,32
				c3,0,6.1,0,9.1,0c1.3,0,1.8-0.3,1.8-1.7c-0.1-5.9-0.1-11.8,0-17.8c0-1.3-0.5-1.7-1.7-1.7c-6.1,0-12.2,0-18.2,0
				c-1.4,0-1.7,0.5-1.7,1.8c0.1,5.9,0.1,11.7,0,17.6c0,1.4,0.5,1.7,1.8,1.7C15.8,32,18.8,32,21.8,32z"/>
			<path class="st1" d="M22.1,118c4.4,0,8.9,0.1,13.3,0c1.6,0,2.1,0.5,2.1,2.1c-0.1,8.8-0.1,17.6,0,26.4c0,1.5-0.4,2.1-2,2.1
				c-9-0.1-18.1-0.1-27.1,0c-1.6,0-2-0.5-2-2c0.1-8.9,0.1-17.7,0-26.6c0-1.6,0.6-2,2.1-2C13,118,17.5,118,22.1,118z M22,122.6
				c-3.1,0-6.3,0-9.4,0c-1.1,0-1.5,0.4-1.5,1.5c0,6.1,0,12.3,0,18.4c0,1,0.4,1.4,1.4,1.4c6.2,0,12.5,0,18.7,0c1.1,0,1.5-0.4,1.5-1.5
				c0-6.1,0-12.2,0-18.2c0-1.2-0.4-1.6-1.6-1.6C28.1,122.6,25.1,122.6,22,122.6z"/>
			<path class="st1" d="M123,40.6c1.7,0,3.4,0,5.1,0c1.1,0,1.6,0.4,1.5,1.5c0,0.4,0,0.8,0,1.1c0.2,1.6-0.5,2.2-2.1,2.1
				c-2.2-0.1-3,1.1-2.3,3.3c0.1,0.4,0.4,0.6,0.8,0.6c0.3,0,0.5,0,0.8,0c2.8,0.1,3.4,0.9,2.8,3.7c-0.2,0.8-0.6,0.9-1.3,0.9
				c-2.2,0-4.4,0-6.6,0c-1.1,0-1.3-0.6-1.3-1.6c-0.1-2.8-0.1-2.8-3-2.8c-2.7,0-5.4,0-8.2,0c-1.2,0-1.7,0.4-1.6,1.6c0,0.5,0,1,0,1.4
				c0,0.9-0.4,1.3-1.4,1.4c-3.3,0.3-3.5,0.2-3.5-3.2c0-1.4,0-2.8,0-4.2c-0.1-1.2,0.5-1.7,1.7-1.7c3.2,0,6.4,0,9.6,0
				c1.3,0,1.9-0.3,1.9-1.8c0-1.3-0.2-2.1-1.8-2.1c-2.6,0.1-2.6,0-2.6-2.7c0-1.6,0-3.2,0-4.8c0-1,0.4-1.5,1.5-1.6
				c3.3-0.1,3.3-0.2,3.3,3.2c0,1.2,0.1,2.5,0,3.7c-0.1,1.3,0.3,1.9,1.7,1.8C119.8,40.6,121.4,40.6,123,40.6z"/>
			<path class="st1" d="M144.8,148.5c-2.3,0-2.4,0-2.4-2.4c0.1-1.7-0.8-1.8-2.2-1.9c-1.5,0-2,0.5-1.9,2c0.1,0.7,0.4,1.8-0.5,2.1
				c-1.1,0.4-2.5,0.4-3.6,0c-0.8-0.3-0.5-1.2-0.5-1.9c0-2.6,0-2.7,2.5-2.6c1.5,0.1,2.1-0.4,2-2c-0.1-1.6,0-3.3,0-5
				c-0.1-1.3,0.4-1.8,1.8-1.8c2.4,0.1,2.6,0.3,2.5-2.5c-0.1-1.4,0.6-1.9,1.9-1.8c0.5,0,1,0,1.4,0c1,0,1.6,0.4,1.5,1.5
				c0,0.3,0,0.6,0,1c0,2.3,0,2.3-2.3,2.3c-2.1,0-2.1,0-2.1,2.1c0,1.5,0,3.1,0,4.6c0,1,0.3,1.5,1.4,1.4c0.3,0,0.6,0,1,0
				c2.1,0,2.1,0,2.1,2.2C147.3,148.5,147.3,148.5,144.8,148.5z"/>
			<path class="st1" d="M52.4,100.9c1.7,0,3.4,0,5.1,0c1,0,1.4-0.3,1.5-1.4c0.1-3.2,0.4-3.4,3.6-3.1c0.8,0.1,1.2,0.4,1.2,1.2
				c0,0.6,0,1.2,0,1.8c0.1,1.3-0.5,1.8-1.8,1.7c-2.7-0.1-2.7-0.4-2.6,2.5c0,1.4-0.5,1.9-1.9,1.9c-3.2-0.1-6.4,0-9.6,0
				c-1.3,0-1.8,0.5-1.7,1.8c0,0.8,0.4,2-0.6,2.3c-1.2,0.4-2.7,0.6-3.7-0.1c-1.2-0.8-0.5-2.4-0.5-3.6c0-0.9,0.8-0.8,1.5-0.8
				c0.3,0,0.5,0,0.8,0c1.6,0.2,2.2-0.4,2.1-2c-0.1-2.2,0-2.2,2.2-2.2C49.6,100.9,51,100.9,52.4,100.9z"/>
			<path class="st1" d="M41.4,12.8c0-1.7,0-3.4,0-5.1c0-1.1,0.4-1.6,1.5-1.6c0.1,0,0.2,0,0.3,0c3-0.1,3-0.1,3,2.9c0,1.4,0,2.9,0,4.3
				c0,1,0.4,1.5,1.4,1.4c0.3,0,0.5,0,0.8,0c2.1,0,2.2,0.1,2.2,2.2c0,2.5,0,2.5-2.5,2.5c-1.6,0-3.2-0.1-4.8,0
				c-1.7,0.1-2.2-0.6-2.1-2.1C41.5,15.8,41.4,14.3,41.4,12.8C41.4,12.8,41.4,12.8,41.4,12.8z"/>
			<path class="st1" d="M11.1,105.5c0,2.2-0.1,4.5,0,6.7c0.1,1.6-0.6,2.1-2,2c-0.1,0-0.1,0-0.2,0c-2.5,0-2.5,0-2.5-2.4
				c0-4.4,0.1-8.9,0-13.3c0-1.6,0.6-2.1,2-2c0.4,0,0.9,0,1.3,0c1,0,1.4,0.5,1.4,1.5C11.1,100.4,11.1,102.9,11.1,105.5
				C11.1,105.5,11.1,105.5,11.1,105.5z"/>
			<path class="st1" d="M112.1,6.1c0.5,0,1,0,1.4,0c3,0,3.6,0.8,3,3.8c-0.1,0.7-0.5,0.9-1.1,0.9c-2.3,0-4.6,0-6.9,0
				c-0.8,0-1.2-0.4-1.2-1.2c0-4.1-0.3-3.6,3.2-3.6C111.1,6.1,111.6,6.1,112.1,6.1z"/>
			<path class="st1" d="M37.4,43c0,2.3,0,2.3-2.3,2.3c-2.4,0-2.4,0-2.4-2.4c0-2.3,0-2.3,2.5-2.3C37.4,40.6,37.4,40.6,37.4,43z"/>
			<path class="st1" d="M122.9,122.6c-2.3,0-2.3,0-2.3-2.4c0-2.2,0-2.2,2.4-2.2c2.3,0,2.3,0,2.3,2.5
				C125.2,122.6,125.2,122.6,122.9,122.6z"/>
			<path class="st1" d="M136,28c-1.7,0-3.4,0-5.1,0c-1.2,0-1.7-0.4-1.6-1.6c0-3.4,0-6.8,0-10.3c0-1,0.4-1.5,1.4-1.5
				c3.6,0,7.2,0,10.7,0c1,0,1.5,0.4,1.5,1.4c0,3.5,0,6.9,0,10.4c0,1.1-0.5,1.5-1.5,1.5C139.5,28,137.8,28,136,28z"/>
			<path class="st1" d="M21.9,28c-1.7,0-3.4,0-5.1,0c-1.1,0-1.7-0.4-1.6-1.6c0-3.4,0-6.8,0-10.3c0-1,0.4-1.5,1.4-1.5
				c3.6,0,7.2,0,10.7,0c1,0,1.5,0.4,1.5,1.4c0,3.5,0,6.9,0,10.4c0,1.1-0.5,1.5-1.6,1.5C25.4,28,23.6,28,21.9,28z"/>
			<path class="st1" d="M21.9,126.6c1.8,0,3.5,0,5.3,0c1.1,0,1.5,0.5,1.5,1.5c0,3.4,0,6.8,0,10.2c0,1.2-0.5,1.6-1.6,1.6
				c-3.5,0-6.9,0-10.4,0c-1.2,0-1.6-0.5-1.6-1.6c0-3.4,0-6.7,0-10.1c0-1.3,0.5-1.7,1.7-1.7C18.5,126.6,20.2,126.6,21.9,126.6z"/>
		</g>
	</g>
</g>
</svg>
